<?xml version="1.0" ?><svg data-name="Layer 1" id="Layer_1" viewBox="0 0 64 64" xmlns="http://www.w3.org/2000/svg"><path d="M52,60h-2.67l3.64-12.73c.09-.3,.03-.63-.16-.88s-.48-.4-.8-.4h-18.47c-2.05-1.93-4.71-3-7.53-3h-2v-.63l.97-.42c1.82-.78,3-2.56,3.03-4.54l1.4-.28c.93-.19,1.61-1.01,1.61-1.96v-.18c1.65,0,3-1.35,3-3s-1.35-3-3-3c-.14,0-.28,.01-.42,.03-1.3-4.63-5.55-8.03-10.58-8.03s-9.28,3.41-10.58,8.03c-.14-.02-.28-.03-.42-.03-1.65,0-3,1.35-3,3s1.35,3,3,3c0,1.1,.9,2,2,2h1v.36c0,2,1.19,3.81,3.03,4.6l.97,.42v.63h-2c-6.07,0-11,4.93-11,11v6h-1v2H52v-2ZM31,31c.55,0,1,.45,1,1s-.45,1-1,1v-1c0-.33-.02-.66-.05-.99,.02,0,.03,0,.05,0Zm-22,1v1c-.55,0-1-.45-1-1s.45-1,1-1c.02,0,.03,0,.05,0-.03,.33-.05,.66-.05,.99Zm3,0v3h-1v-3c0-4.96,4.04-9,9-9s9,4.04,9,9v3.18l-1,.2v-3.38c0-3.86-3.14-7-7-7h-2c-3.86,0-7,3.14-7,7Zm11.99-3.98c-2.33,.1-3.57,1.23-4.67,2.24-1.05,.97-1.88,1.74-3.66,1.74-.61,0-1.14-.09-1.63-.28,.15-2.62,2.31-4.72,4.97-4.72h2c1.13,0,2.16,.39,2.99,1.02Zm-8.18,12.1c-1.1-.47-1.82-1.56-1.82-2.76v-3.56c.52,.13,1.07,.2,1.66,.2,2.56,0,3.87-1.2,5.02-2.27,1.05-.97,1.88-1.73,3.65-1.73,.49,0,.91,.08,1.32,.2,.22,.56,.35,1.16,.35,1.8v3.78l-6.2,1.24,.39,1.96,5.77-1.15c-.16,1.01-.82,1.88-1.78,2.29l-3,1.29c-.75,.32-1.61,.32-2.36,0l-3-1.29Zm6.18,3.11v.77c0,1.1-.9,2-2,2s-2-.9-2-2v-.77h.03c.63,.28,1.3,.41,1.97,.41s1.34-.13,1.97-.4h.03Zm-4,16.76h-2v-2h1c.55,0,1,.45,1,1v1Zm2,0v-1c0-1.65-1.35-3-3-3h-6v-2.59l1.71-1.71-1.41-1.41-2,2c-.19,.19-.29,.44-.29,.71v4c0,.55,.45,1,1,1h4v2H5v-6c0-4.96,4.04-9,9-9h2.13c.45,1.72,2.01,3,3.87,3s3.43-1.28,3.87-3h2.13c1.45,0,2.85,.35,4.11,1h-.11c-.45,0-.84,.3-.96,.73l-3.79,13.27h-5.25Zm7.33,0l3.43-12h19.92l-3.43,12H27.33Z"/><path d="M39,53v2c.55,0,1-.45,1-1s-.45-1-1-1Z"/><path d="M53,10.29c-1.9-1.7-4.47-2.52-7.02-2.24-3.95,.44-7.26,3.59-7.87,7.51-.52,3.32,.82,6.63,3.5,8.63,.25,.18,.39,.48,.39,.79v.3c-.59,.35-1,.98-1,1.72v2c0,.77,.44,1.43,1.08,1.76,.37,2.39,2.43,4.24,4.92,4.24s4.55-1.84,4.92-4.24c.64-.33,1.08-1,1.08-1.76v-2c0-.74-.41-1.38-1-1.72v-.3c0-.31,.15-.6,.39-.78,2.3-1.72,3.61-4.34,3.61-7.2,0-2.56-1.09-5-3-6.71Zm-6,22.71c-1.3,0-2.4-.84-2.82-2h5.63c-.41,1.16-1.51,2-2.82,2Zm-4-4v-2h8v2s-8,0-8,0Zm3-12c0-.55,.45-1,1-1s1,.45,1,1-.45,1-1,1-1-.45-1-1Zm5.19,5.6c-.74,.56-1.19,1.45-1.19,2.38v.02h-2v-5.18c1.16-.41,2-1.51,2-2.82,0-1.65-1.35-3-3-3s-3,1.35-3,3c0,1.3,.84,2.4,2,2.82v5.18h-2v-.02c0-.93-.45-1.83-1.19-2.39-2.08-1.56-3.12-4.14-2.72-6.73,.47-3.04,3.04-5.49,6.11-5.83,2.03-.23,3.97,.39,5.47,1.74,1.48,1.33,2.33,3.23,2.33,5.22,0,2.22-1.02,4.26-2.81,5.6Z"/><rect height="4" width="2" x="46" y="2"/><rect height="4" transform="translate(5.55 29.02) rotate(-45)" width="2" x="36.81" y="5.81"/><rect height="2" width="4" x="32" y="16"/><rect height="2" transform="translate(-7.45 34.41) rotate(-45)" width="4" x="35.81" y="25.19"/><rect height="4" transform="translate(-2.06 47.41) rotate(-45)" width="2" x="55.19" y="24.19"/><rect height="2" width="4" x="58" y="16"/><rect height="2" transform="translate(10.94 42.02) rotate(-45)" width="4" x="54.19" y="6.81"/><rect height="2" width="2" x="46" y="37"/><rect height="2" width="2" x="43" y="41"/><rect height="2" width="2" x="39" y="43"/></svg>